# xmcd
# 
# Track frame offsets:
#     150
#     10095
#     19600
#     33125
#     45815
#     57350
#     69820
#     83400
#     92552
#     101450
#     113975
#     125930
#     137620
#     147920
#     161435
#     171480
#     182190
#     193825
#     205800
#     216862
# 
# Disc length: 3008
# 
# Revision: 0
# Processed by: cddbd v1.5.2PL0 Copyright (c) Steve Scherf et al.
# Submitted via: BonkEnc v1.0.6
# 
DISCID=0a0bbe14
DTITLE=Sonny James - Reader's Digest Best of the 50's
DYEAR=0
DGENRE=Country
TTITLE0=Knee Deep In The Blues
TTITLE1=Billy Bayou
TTITLE2=How's The World Treating You
TTITLE3=Chattanoogie Shoe Shine Boy
TTITLE4=It Wasn't God Who Made Honky Tonk Angles
TTITLE5=Don't Let The Stars Get In Your Eyes
TTITLE6=I Forgot More Than You'll Ever Know
TTITLE7=Oh Baby Mine (I Get So Lonely)
TTITLE8=Alone With You
TTITLE9=I Walk The Line
TTITLE10=When It's Springtime in Alaska (It's Fourty Below)
TTITLE11=Crazy Arms
TTITLE12=The Blackboard of My Heart
TTITLE13=I Don't Hurt Anymore
TTITLE14=Ballad of a Teenage Queen
TTITLE15=All I Have To Do Is Dream Of You
TTITLE16=Gambler's Guitar
TTITLE17=Scarlet Ribbons (For Her Hair)
TTITLE18=There Stands The Glass
TTITLE19=You're Ther Reason I'm In Love
EXTD=
EXTT0=
EXTT1=
EXTT2=
EXTT3=
EXTT4=
EXTT5=
EXTT6=
EXTT7=
EXTT8=
EXTT9=
EXTT10=
EXTT11=
EXTT12=
EXTT13=
EXTT14=
EXTT15=
EXTT16=
EXTT17=
EXTT18=
EXTT19=
PLAYORDER=
